<svg width="70" height="20" viewBox="0 0 70 20" fill="none" xmlns="http://www.w3.org/2000/svg">
<path d="M0.0160002 19V1.048H2.872V19H0.0160002ZM15.0912 0.808C16.1632 0.808 17.1712 0.967999 18.1152 1.288C19.0592 1.592 19.8992 2.032 20.6352 2.608C21.3712 3.184 21.9792 3.888 22.4592 4.72C22.9552 5.552 23.2752 6.488 23.4192 7.528L20.4432 7.792C20.2032 6.352 19.5872 5.256 18.5952 4.504C17.6192 3.736 16.4192 3.352 14.9952 3.352C14.1152 3.352 13.3072 3.504 12.5712 3.808C11.8512 4.112 11.2272 4.552 10.6992 5.128C10.1712 5.704 9.76319 6.408 9.47519 7.24C9.18719 8.056 9.04319 8.984 9.04319 10.024C9.04319 11.112 9.19519 12.072 9.49919 12.904C9.80319 13.736 10.2272 14.432 10.7712 14.992C11.3152 15.552 11.9472 15.976 12.6672 16.264C13.3872 16.552 14.1712 16.696 15.0192 16.696C16.4272 16.696 17.6192 16.336 18.5952 15.616C19.5712 14.88 20.1872 13.816 20.4432 12.424L23.4432 12.688C23.2672 13.712 22.9312 14.632 22.4352 15.448C21.9552 16.248 21.3472 16.936 20.6112 17.512C19.8912 18.072 19.0592 18.504 18.1152 18.808C17.1872 19.096 16.1872 19.24 15.1152 19.24C13.8352 19.24 12.6432 19.032 11.5392 18.616C10.4512 18.2 9.50719 17.6 8.70719 16.816C7.90719 16.016 7.27519 15.048 6.81119 13.912C6.36319 12.776 6.13919 11.48 6.13919 10.024C6.13919 8.568 6.36319 7.272 6.81119 6.136C7.25919 4.984 7.88319 4.016 8.68319 3.232C9.48319 2.448 10.4272 1.848 11.5152 1.432C12.6032 1.016 13.7952 0.808 15.0912 0.808ZM26.7409 19V0.352H28.0849V19H26.7409ZM33.1752 13.432C33.1912 14.168 33.3112 14.824 33.5352 15.4C33.7752 15.96 34.0952 16.44 34.4952 16.84C34.8952 17.224 35.3592 17.52 35.8872 17.728C36.4152 17.936 36.9912 18.04 37.6152 18.04C38.6712 18.04 39.5432 17.808 40.2312 17.344C40.9352 16.88 41.3992 16.224 41.6232 15.376L42.9672 15.472C42.6952 16.592 42.0872 17.496 41.1432 18.184C40.2152 18.872 39.0552 19.216 37.6632 19.216C36.8152 19.216 36.0312 19.08 35.3112 18.808C34.5912 18.52 33.9672 18.112 33.4392 17.584C32.9112 17.04 32.4952 16.376 32.1912 15.592C31.9032 14.808 31.7592 13.92 31.7592 12.928C31.7592 11.936 31.9032 11.048 32.1912 10.264C32.4952 9.48 32.9032 8.824 33.4152 8.296C33.9432 7.752 34.5592 7.344 35.2632 7.072C35.9832 6.784 36.7672 6.64 37.6152 6.64C38.4792 6.64 39.2472 6.784 39.9192 7.072C40.6072 7.36 41.1832 7.768 41.6472 8.296C42.1272 8.808 42.4872 9.432 42.7272 10.168C42.9672 10.888 43.0872 11.688 43.0872 12.568V13.432H33.1752ZM37.5912 7.84C36.9832 7.84 36.4152 7.936 35.8872 8.128C35.3592 8.32 34.8952 8.608 34.4952 8.992C34.1112 9.36 33.7992 9.824 33.5592 10.384C33.3192 10.944 33.1912 11.584 33.1752 12.304H41.7672C41.7672 11.664 41.6792 11.072 41.5032 10.528C41.3272 9.968 41.0632 9.496 40.7112 9.112C40.3592 8.712 39.9192 8.4 39.3912 8.176C38.8792 7.952 38.2792 7.84 37.5912 7.84ZM50.6931 6.64C52.1491 6.64 53.2451 7.048 53.9811 7.864C54.7331 8.664 55.1091 9.792 55.1091 11.248V19H53.7411V17.176C53.2931 17.848 52.7251 18.36 52.0371 18.712C51.3491 19.048 50.5731 19.216 49.7091 19.216C48.5571 19.216 47.6211 18.936 46.9011 18.376C46.1971 17.816 45.8451 16.984 45.8451 15.88C45.8451 15.288 45.9491 14.776 46.1571 14.344C46.3811 13.912 46.6851 13.56 47.0691 13.288C47.4691 13 47.9411 12.784 48.4851 12.64C49.0291 12.48 49.6291 12.384 50.2851 12.352L53.7411 12.136V11.272C53.7411 10.2 53.4931 9.368 52.9971 8.776C52.5011 8.168 51.7411 7.864 50.7171 7.864C50.1891 7.864 49.7251 7.952 49.3251 8.128C48.9251 8.304 48.5891 8.536 48.3171 8.824C48.0611 9.096 47.8691 9.416 47.7411 9.784C47.6131 10.136 47.5491 10.504 47.5491 10.888L46.1811 10.84C46.1811 10.312 46.2771 9.8 46.4691 9.304C46.6771 8.808 46.9731 8.36 47.3571 7.96C47.7411 7.56 48.2131 7.24 48.7731 7C49.3331 6.76 49.9731 6.64 50.6931 6.64ZM50.4291 13.48C49.4371 13.544 48.6451 13.752 48.0531 14.104C47.4771 14.456 47.1891 15.04 47.1891 15.856C47.1891 16.656 47.4371 17.224 47.9331 17.56C48.4451 17.88 49.1011 18.04 49.9011 18.04C50.3971 18.04 50.8771 17.968 51.3411 17.824C51.8211 17.68 52.2371 17.448 52.5891 17.128C52.9411 16.792 53.2211 16.36 53.4291 15.832C53.6531 15.288 53.7651 14.624 53.7651 13.84V13.288L50.4291 13.48ZM64.9049 6.64C65.5769 6.64 66.2009 6.76 66.7769 7C67.3529 7.224 67.8489 7.552 68.2649 7.984C68.6809 8.416 69.0009 8.936 69.2249 9.544C69.4649 10.136 69.5849 10.8 69.5849 11.536V19H68.2409V11.704C68.2409 10.552 67.9129 9.632 67.2569 8.944C66.6009 8.24 65.7449 7.888 64.6889 7.888C64.1289 7.888 63.6169 7.992 63.1529 8.2C62.6889 8.408 62.2889 8.688 61.9529 9.04C61.6329 9.376 61.3769 9.776 61.1849 10.24C61.0089 10.704 60.9209 11.192 60.9209 11.704V19H59.5769V6.856H60.8729V8.92C61.0009 8.632 61.1849 8.352 61.4249 8.08C61.6649 7.808 61.9529 7.568 62.2889 7.36C62.6249 7.136 63.0089 6.96 63.4409 6.832C63.8889 6.704 64.3769 6.64 64.9049 6.64Z" fill="white"/>
</svg>
